<svg width="72" height="72" viewBox="0 0 72 72" fill="none" xmlns="http://www.w3.org/2000/svg">
<path d="M6.98755 42.4829C10.8467 42.4829 13.9751 39.3545 13.9751 35.4954C13.9751 31.6362 10.8467 28.5078 6.98755 28.5078C3.12843 28.5078 0 31.6362 0 35.4954C0 39.3545 3.12843 42.4829 6.98755 42.4829Z" fill="white"/>
<path d="M35.4902 13.9751C39.3493 13.9751 42.4778 10.8467 42.4778 6.98755C42.4778 3.12843 39.3493 0 35.4902 0C31.6311 0 28.5027 3.12843 28.5027 6.98755C28.5027 10.8467 31.6311 13.9751 35.4902 13.9751Z" fill="#D9FF6B"/>
<path d="M50.2517 28.7344C54.1108 28.7344 57.2393 25.6059 57.2393 21.7468C57.2393 17.8877 54.1108 14.7593 50.2517 14.7593C46.3926 14.7593 43.2642 17.8877 43.2642 21.7468C43.2642 25.6059 46.3926 28.7344 50.2517 28.7344Z" fill="#D9FF6B"/>
<path d="M42.3921 8.08008C41.6438 12.8042 44.4322 15.5923 49.1563 14.8443L43.3479 20.6527C44.0963 15.9285 41.3079 13.1405 36.5837 13.8885L42.3921 8.08008Z" fill="#D9FF6B"/>
<path d="M50.7551 57.7456C54.6142 57.7456 57.7427 54.6172 57.7427 50.7581C57.7427 46.8989 54.6142 43.7705 50.7551 43.7705C46.896 43.7705 43.7676 46.8989 43.7676 50.7581C43.7676 54.6172 46.896 57.7456 50.7551 57.7456Z" fill="#D9FF6B"/>
<path d="M36.5039 71.9995C40.363 71.9995 43.4915 68.8711 43.4915 65.012C43.4915 61.1528 40.363 58.0244 36.5039 58.0244C32.6448 58.0244 29.5164 61.1528 29.5164 65.012C29.5164 68.8711 32.6448 71.9995 36.5039 71.9995Z" fill="#D9FF6B"/>
<path d="M49.6645 57.6595C45.2929 56.9672 42.7126 59.5475 43.4048 63.9191L37.5964 58.1107C41.9681 58.8033 44.5483 56.2227 43.8561 51.8511L49.6645 57.6595Z" fill="#D9FF6B"/>
<path d="M65.0161 43.4917C68.8752 43.4917 72.0037 40.3633 72.0037 36.5041C72.0037 32.645 68.8752 29.5166 65.0161 29.5166C61.157 29.5166 58.0286 32.645 58.0286 36.5041C58.0286 40.3633 61.157 43.4917 65.0161 43.4917Z" fill="white"/>
<path d="M36.0029 42.9854C39.862 42.9854 42.9905 39.8569 42.9905 35.9978C42.9905 32.1387 39.862 29.0103 36.0029 29.0103C32.1438 29.0103 29.0154 32.1387 29.0154 35.9978C29.0154 39.8569 32.1438 42.9854 36.0029 42.9854Z" fill="white"/>
<path d="M59.9884 41.358C55.1341 36.3318 45.8821 36.1711 40.856 41.0252L41.0277 31.145C45.8817 36.1712 55.1341 36.3318 60.1602 31.4778L59.9884 41.358Z" fill="white"/>
<path d="M21.2478 28.229C25.1069 28.229 28.2354 25.1006 28.2354 21.2415C28.2354 17.3823 25.1069 14.2539 21.2478 14.2539C17.3887 14.2539 14.2603 17.3823 14.2603 21.2415C14.2603 25.1006 17.3887 28.229 21.2478 28.229Z" fill="#D9FF6B"/>
<path d="M21.7505 57.2402C25.6096 57.2402 28.738 54.1118 28.738 50.2527C28.738 46.3936 25.6096 43.2651 21.7505 43.2651C17.8914 43.2651 14.7629 46.3936 14.7629 50.2527C14.7629 54.1118 17.8914 57.2402 21.7505 57.2402Z" fill="#D9FF6B"/>
<path d="M26.27 26.0947C21.416 31.1209 21.5767 40.3728 26.6028 45.2272L16.7227 45.399C21.5771 40.3728 21.416 31.1209 16.3899 26.2665L26.27 26.0947Z" fill="#D9FF6B"/>
</svg>
